<svg width="27" height="27" viewBox="0 0 27 27" fill="none" xmlns="http://www.w3.org/2000/svg">
<path d="M13.5 15.0625C17.3818 15.0625 20.5312 11.9131 20.5312 8.03125C20.5312 4.14941 17.3818 1 13.5 1C9.61816 1 6.46875 4.14941 6.46875 8.03125C6.46875 11.9131 9.61816 15.0625 13.5 15.0625ZM19.75 16.625H17.0596C15.9756 17.123 14.7695 17.4062 13.5 17.4062C12.2305 17.4062 11.0293 17.123 9.94043 16.625H7.25C3.79785 16.625 1 19.4229 1 22.875V23.6562C1 24.9502 2.0498 26 3.34375 26H23.6562C24.9502 26 26 24.9502 26 23.6562V22.875C26 19.4229 23.2021 16.625 19.75 16.625Z" stroke="black" stroke-width="2"/>
</svg>
