<svg width="32" height="26" viewBox="0 0 32 26" fill="none" xmlns="http://www.w3.org/2000/svg">
<path d="M5.66704 15.2851L4.83607 15.9766C4.83592 15.9767 4.83577 15.9769 4.83562 15.977C4.67542 16.1106 4.49016 16.2114 4.29024 16.2733C4.09012 16.3352 3.87965 16.3567 3.67101 16.3364C3.46236 16.316 3.26014 16.2544 3.07593 16.1553C2.89176 16.0562 2.72944 15.9217 2.59789 15.7601C2.59788 15.7601 2.59786 15.7601 2.59784 15.7601L1.36027 14.2399C1.35992 14.2395 1.35957 14.2391 1.35921 14.2386C1.22784 14.0779 1.12944 13.8932 1.06915 13.6951C1.0087 13.4966 0.987611 13.2882 1.00696 13.0817C1.02631 12.8752 1.08575 12.6743 1.18226 12.4902C1.27878 12.3062 1.4106 12.1424 1.57069 12.0087L1.57205 12.0076L13.876 1.76911L13.8763 1.76885C14.4727 1.27298 15.2227 1.00069 15.9982 1.00069C16.7736 1.00069 17.5236 1.27296 18.12 1.76879C18.12 1.76881 18.12 1.76883 18.12 1.76885L20.8325 4.02372V2.58935C20.8325 2.17116 20.9968 1.76802 21.2926 1.46917C21.5887 1.16999 21.9926 1 22.4158 1H25.1378C25.5611 1 25.9649 1.16999 26.261 1.46917C26.5568 1.76801 26.7211 2.17114 26.7211 2.58935V8.92339L30.4195 12.0036C30.4206 12.0045 30.4217 12.0054 30.4227 12.0063C30.5829 12.1386 30.7153 12.3009 30.8127 12.4836L30.8127 12.4836C30.9107 12.6676 30.9716 12.8688 30.9922 13.0758C31.0127 13.2827 30.9927 13.4919 30.9329 13.6913L30.9329 13.6913C30.8732 13.8907 30.7748 14.0768 30.6431 14.2388L30.6428 14.2391L29.4033 15.7616L29.4019 15.7634C29.27 15.9246 29.1076 16.0585 28.9233 16.1572L28.4513 15.2756L28.9233 16.1572C28.7391 16.2558 28.5369 16.317 28.3284 16.337C28.12 16.3569 27.9097 16.3351 27.7099 16.273L28.0067 15.3181L27.7099 16.273C27.5107 16.2111 27.3261 16.1104 27.1664 15.9772C27.1659 15.9768 27.1654 15.9764 27.1649 15.976L26.3323 15.2831V23.2142C26.3323 23.6845 26.1475 24.1376 25.8152 24.4733L25.1045 23.7698L25.8152 24.4733C25.4827 24.8093 25.0294 25 24.5545 25H24.5517L19.1096 24.9848C19.109 24.9848 19.1084 24.9848 19.1078 24.9848L19.1068 24.9848L19.1095 23.9848C19.0072 23.9848 18.9059 23.9644 18.8114 23.9247L5.66704 15.2851ZM5.66704 15.2851V23.2142C5.66704 23.6845 5.85185 24.1376 6.18407 24.4733L6.89482 23.7698L6.18407 24.4733C6.51665 24.8093 6.96992 25 7.44475 25L7.44737 25L12.8943 24.9858L12.8967 24.9857C13.37 24.9834 13.821 24.7916 14.1516 24.4559L13.4391 23.7542L14.1516 24.4559C14.4819 24.1205 14.6655 23.6687 14.6655 23.1999V18.7136H17.3318V23.1953V23.1965H18.3318" stroke="black" stroke-width="2"/>
</svg>
