<svg width="29" height="24" viewBox="0 0 29 24" fill="none" xmlns="http://www.w3.org/2000/svg">
<path d="M27.6263 12.9732L18.6259 22.5966C17.8223 23.4558 16.4293 22.8544 16.4293 21.6228V16.1237H9.14326C8.43073 16.1237 7.85748 15.5108 7.85748 14.7489V9.24985C7.85748 8.488 8.43073 7.87508 9.14326 7.87508H16.4293V2.37599C16.4293 1.15015 17.8169 0.542961 18.6259 1.40219L27.6263 11.0256C28.1246 11.564 28.1246 12.4347 27.6263 12.9732ZM11.2862 22.3102V20.0189C11.2862 19.6408 10.9969 19.3315 10.6433 19.3315H6.14311C5.19485 19.3315 4.42874 18.5124 4.42874 17.4985V6.50031C4.42874 5.48641 5.19485 4.66728 6.14311 4.66728H10.6433C10.9969 4.66728 11.2862 4.35795 11.2862 3.97989V1.6886C11.2862 1.31054 10.9969 1.00122 10.6433 1.00122H6.14311C3.30369 1.00122 1 3.46435 1 6.50031V17.4985C1 20.5344 3.30369 22.9976 6.14311 22.9976H10.6433C10.9969 22.9976 11.2862 22.6882 11.2862 22.3102Z" stroke="black"/>
</svg>
